<svg width="1016" height="306" viewBox="0 0 1016 306" fill="none" xmlns="http://www.w3.org/2000/svg">
<g clip-path="url(#clip0_1426_118)">
<circle cx="153" cy="153" r="153" fill="url(#paint0_radial_1426_118)"/>
<mask id="mask0_1426_118" style="mask-type:alpha" maskUnits="userSpaceOnUse" x="0" y="0" width="306" height="306">
<circle cx="153" cy="153" r="153" fill="url(#paint1_radial_1426_118)"/>
</mask>
<g mask="url(#mask0_1426_118)">
<g filter="url(#filter0_d_1426_118)">
<path d="M185 68C212.614 68 235 90.3858 235 118V289.469L85 212.479V118C85 90.3858 107.386 68 135 68H185Z" fill="white"/>
<path d="M185 68C212.614 68 235 90.3858 235 118V289.469L85 212.479V118C85 90.3858 107.386 68 135 68H185Z" fill="url(#paint2_linear_1426_118)"/>
</g>
<g filter="url(#filter1_d_1426_118)">
<path d="M235 289.469V338H85V212.479L235 289.469Z" fill="url(#paint3_linear_1426_118)"/>
</g>
<path d="M45 150L85 120V180L45 150Z" fill="black"/>
<path d="M45 150L85 120V180L45 150Z" fill="url(#paint4_linear_1426_118)"/>
<circle cx="133.459" cy="131.637" r="19.3182" fill="url(#paint5_radial_1426_118)"/>
</g>
<path d="M389.062 217V89.7273H439.275C448.928 89.7273 457.152 91.5709 463.946 95.2582C470.741 98.904 475.92 103.979 479.483 110.484C483.087 116.947 484.889 124.404 484.889 132.856C484.889 141.308 483.066 148.765 479.42 155.228C475.775 161.691 470.492 166.725 463.574 170.329C456.696 173.934 448.369 175.736 438.591 175.736H406.587V154.172H434.241C439.42 154.172 443.687 153.281 447.043 151.499C450.44 149.676 452.967 147.17 454.625 143.98C456.323 140.748 457.173 137.04 457.173 132.856C457.173 128.63 456.323 124.943 454.625 121.794C452.967 118.604 450.44 116.139 447.043 114.399C443.646 112.617 439.337 111.727 434.117 111.727H415.971V217H389.062ZM501.87 217V121.545H528.344V217H501.87ZM515.169 109.241C511.233 109.241 507.857 107.936 505.04 105.326C502.264 102.674 500.876 99.5047 500.876 95.8175C500.876 92.1716 502.264 89.0437 505.04 86.4336C507.857 83.7821 511.233 82.4563 515.169 82.4563C519.105 82.4563 522.461 83.7821 525.237 86.4336C528.054 89.0437 529.463 92.1716 529.463 95.8175C529.463 99.5047 528.054 102.674 525.237 105.326C522.461 107.936 519.105 109.241 515.169 109.241ZM593.052 218.864C583.233 218.864 574.782 216.876 567.697 212.898C560.654 208.88 555.227 203.204 551.415 195.871C547.604 188.496 545.698 179.775 545.698 169.708C545.698 159.889 547.604 151.271 551.415 143.855C555.227 136.44 560.592 130.66 567.511 126.517C574.471 122.374 582.633 120.303 591.996 120.303C598.293 120.303 604.156 121.318 609.583 123.348C615.052 125.336 619.816 128.34 623.876 132.359C627.978 136.377 631.168 141.432 633.447 147.522C635.725 153.571 636.865 160.655 636.865 168.776V176.047H556.263V159.64H611.944C611.944 155.829 611.116 152.452 609.459 149.511C607.801 146.569 605.502 144.27 602.561 142.613C599.66 140.914 596.284 140.065 592.431 140.065C588.412 140.065 584.849 140.997 581.742 142.861C578.676 144.684 576.273 147.149 574.533 150.256C572.793 153.322 571.902 156.74 571.861 160.51V176.109C571.861 180.832 572.731 184.913 574.471 188.351C576.253 191.79 578.759 194.441 581.991 196.306C585.222 198.17 589.054 199.102 593.487 199.102C596.429 199.102 599.122 198.688 601.566 197.859C604.011 197.031 606.103 195.788 607.843 194.131C609.583 192.473 610.909 190.443 611.82 188.04L636.305 189.656C635.062 195.539 632.514 200.677 628.661 205.068C624.85 209.418 619.92 212.816 613.871 215.26C607.864 217.663 600.924 218.864 593.052 218.864ZM654.638 217V89.7273H681.112V137.579H681.92C683.08 135.01 684.758 132.4 686.953 129.749C689.191 127.056 692.091 124.818 695.654 123.037C699.258 121.214 703.732 120.303 709.077 120.303C716.037 120.303 722.459 122.125 728.342 125.771C734.225 129.376 738.927 134.824 742.449 142.115C745.97 149.366 747.731 158.46 747.731 169.397C747.731 180.045 746.012 189.035 742.573 196.368C739.176 203.66 734.536 209.19 728.653 212.961C722.811 216.689 716.265 218.554 709.015 218.554C703.877 218.554 699.507 217.704 695.902 216.006C692.339 214.307 689.418 212.173 687.14 209.605C684.861 206.995 683.121 204.364 681.92 201.712H680.739V217H654.638ZM680.552 169.273C680.552 174.949 681.34 179.9 682.914 184.125C684.488 188.351 686.767 191.645 689.75 194.006C692.733 196.326 696.358 197.487 700.625 197.487C704.934 197.487 708.58 196.306 711.563 193.944C714.546 191.541 716.804 188.227 718.336 184.001C719.911 179.734 720.698 174.824 720.698 169.273C720.698 163.763 719.932 158.915 718.399 154.731C716.866 150.546 714.608 147.273 711.625 144.912C708.642 142.55 704.975 141.37 700.625 141.37C696.316 141.37 692.671 142.509 689.688 144.788C686.746 147.066 684.488 150.298 682.914 154.482C681.34 158.667 680.552 163.597 680.552 169.273ZM792.615 218.802C786.525 218.802 781.098 217.746 776.333 215.633C771.569 213.478 767.799 210.309 765.023 206.125C762.288 201.899 760.921 196.637 760.921 190.34C760.921 185.037 761.895 180.583 763.842 176.979C765.789 173.374 768.441 170.474 771.797 168.278C775.152 166.083 778.964 164.425 783.231 163.307C787.54 162.188 792.056 161.401 796.779 160.945C802.33 160.365 806.805 159.827 810.202 159.33C813.599 158.791 816.064 158.004 817.597 156.968C819.13 155.932 819.897 154.399 819.897 152.369V151.996C819.897 148.061 818.654 145.016 816.168 142.861C813.724 140.707 810.244 139.63 805.728 139.63C800.963 139.63 797.172 140.686 794.355 142.799C791.538 144.871 789.674 147.481 788.762 150.629L764.277 148.641C765.52 142.84 767.964 137.827 771.61 133.602C775.256 129.334 779.958 126.061 785.717 123.783C791.517 121.463 798.229 120.303 805.852 120.303C811.155 120.303 816.23 120.924 821.078 122.167C825.966 123.41 830.296 125.336 834.066 127.946C837.877 130.556 840.881 133.912 843.077 138.014C845.273 142.074 846.37 146.942 846.37 152.618V217H821.264V203.763H820.518C818.985 206.746 816.935 209.377 814.366 211.656C811.797 213.893 808.711 215.654 805.106 216.938C801.502 218.181 797.338 218.802 792.615 218.802ZM800.197 200.532C804.091 200.532 807.53 199.765 810.513 198.232C813.496 196.658 815.837 194.545 817.535 191.893C819.234 189.242 820.083 186.238 820.083 182.882V172.753C819.255 173.291 818.115 173.789 816.665 174.244C815.257 174.659 813.662 175.052 811.88 175.425C810.099 175.757 808.317 176.067 806.536 176.357C804.754 176.606 803.138 176.834 801.688 177.041C798.581 177.497 795.867 178.222 793.547 179.216C791.227 180.21 789.425 181.557 788.141 183.255C786.856 184.913 786.214 186.984 786.214 189.47C786.214 193.074 787.519 195.829 790.129 197.735C792.781 199.599 796.137 200.532 800.197 200.532ZM893.383 89.7273V217H866.909V89.7273H893.383ZM949.764 218.554C942.514 218.554 935.947 216.689 930.064 212.961C924.222 209.19 919.582 203.66 916.144 196.368C912.746 189.035 911.048 180.045 911.048 169.397C911.048 158.46 912.809 149.366 916.33 142.115C919.852 134.824 924.533 129.376 930.375 125.771C936.258 122.125 942.7 120.303 949.702 120.303C955.046 120.303 959.5 121.214 963.063 123.037C966.667 124.818 969.568 127.056 971.763 129.749C974.001 132.4 975.699 135.01 976.859 137.579H977.667V89.7273H1004.08V217H977.978V201.712H976.859C975.616 204.364 973.856 206.995 971.577 209.605C969.34 212.173 966.419 214.307 962.814 216.006C959.251 217.704 954.901 218.554 949.764 218.554ZM958.154 197.487C962.421 197.487 966.025 196.326 968.967 194.006C971.95 191.645 974.228 188.351 975.803 184.125C977.419 179.9 978.226 174.949 978.226 169.273C978.226 163.597 977.439 158.667 975.865 154.482C974.291 150.298 972.012 147.066 969.029 144.788C966.046 142.509 962.421 141.37 958.154 141.37C953.803 141.37 950.137 142.55 947.154 144.912C944.171 147.273 941.913 150.546 940.38 154.731C938.847 158.915 938.081 163.763 938.081 169.273C938.081 174.824 938.847 179.734 940.38 184.001C941.954 188.227 944.212 191.541 947.154 193.944C950.137 196.306 953.803 197.487 958.154 197.487Z" fill="black"/>
</g>
<defs>
<filter id="filter0_d_1426_118" x="73.1" y="68" width="173.8" height="245.369" filterUnits="userSpaceOnUse" color-interpolation-filters="sRGB">
<feFlood flood-opacity="0" result="BackgroundImageFix"/>
<feColorMatrix in="SourceAlpha" type="matrix" values="0 0 0 0 0 0 0 0 0 0 0 0 0 0 0 0 0 0 127 0" result="hardAlpha"/>
<feOffset dy="12"/>
<feGaussianBlur stdDeviation="5.95"/>
<feComposite in2="hardAlpha" operator="out"/>
<feColorMatrix type="matrix" values="0 0 0 0 0 0 0 0 0 0 0 0 0 0 0 0 0 0 0.25 0"/>
<feBlend mode="normal" in2="BackgroundImageFix" result="effect1_dropShadow_1426_118"/>
<feBlend mode="normal" in="SourceGraphic" in2="effect1_dropShadow_1426_118" result="shape"/>
</filter>
<filter id="filter1_d_1426_118" x="73.1" y="212.479" width="173.8" height="149.421" filterUnits="userSpaceOnUse" color-interpolation-filters="sRGB">
<feFlood flood-opacity="0" result="BackgroundImageFix"/>
<feColorMatrix in="SourceAlpha" type="matrix" values="0 0 0 0 0 0 0 0 0 0 0 0 0 0 0 0 0 0 127 0" result="hardAlpha"/>
<feOffset dy="12"/>
<feGaussianBlur stdDeviation="5.95"/>
<feComposite in2="hardAlpha" operator="out"/>
<feColorMatrix type="matrix" values="0 0 0 0 0 0 0 0 0 0 0 0 0 0 0 0 0 0 0.25 0"/>
<feBlend mode="normal" in2="BackgroundImageFix" result="effect1_dropShadow_1426_118"/>
<feBlend mode="normal" in="SourceGraphic" in2="effect1_dropShadow_1426_118" result="shape"/>
</filter>
<radialGradient id="paint0_radial_1426_118" cx="0" cy="0" r="1" gradientUnits="userSpaceOnUse" gradientTransform="translate(153) rotate(90) scale(306 491.656)">
<stop offset="0.433268" stop-color="#FF8400"/>
<stop offset="1" stop-color="#D64B00"/>
</radialGradient>
<radialGradient id="paint1_radial_1426_118" cx="0" cy="0" r="1" gradientUnits="userSpaceOnUse" gradientTransform="translate(153) rotate(90) scale(306 491.656)">
<stop offset="0.433268" stop-color="#FF8400"/>
<stop offset="1" stop-color="#D64B00"/>
</radialGradient>
<linearGradient id="paint2_linear_1426_118" x1="105.227" y1="105.553" x2="261.519" y2="318.133" gradientUnits="userSpaceOnUse">
<stop offset="0.296855" stop-color="white"/>
<stop offset="1" stop-color="#D2D2D2"/>
</linearGradient>
<linearGradient id="paint3_linear_1426_118" x1="223.455" y1="302" x2="85" y2="229.347" gradientUnits="userSpaceOnUse">
<stop/>
<stop offset="1" stop-color="#4A4A4A"/>
</linearGradient>
<linearGradient id="paint4_linear_1426_118" x1="81.9212" y1="162.792" x2="38.5504" y2="150.095" gradientUnits="userSpaceOnUse">
<stop/>
<stop offset="1" stop-color="#4A4A4A"/>
</linearGradient>
<radialGradient id="paint5_radial_1426_118" cx="0" cy="0" r="1" gradientUnits="userSpaceOnUse" gradientTransform="translate(114.227 129.318) rotate(12.2788) scale(86.9899)">
<stop stop-color="#666666"/>
<stop offset="0.389802"/>
</radialGradient>
<clipPath id="clip0_1426_118">
<rect width="1016" height="306" fill="white"/>
</clipPath>
</defs>
</svg>
